<svg xmlns="http://www.w3.org/2000/svg" viewBox="0 0 126.23 55.64"><defs><style>.cls-1{fill:#4d5858;}</style></defs><g id="Livello_2" data-name="Livello 2"><g id="Livello_1-2" data-name="Livello 1"><path class="cls-1" d="M33.48,34A49.69,49.69,0,0,1,44,9a37.48,37.48,0,0,1,6.73-6.25C55.45-.47,59-.84,60.28,1.52c.57,1.23.47,5.3-.29,8.43a65.86,65.86,0,0,1-4.16,11.93c-.85,1.8-1.71,2.27-2.75,1.42-.94-.66-.76-1.52.29-2.56C56,18.09,59.8,5.5,58.76,2.56c-.47-1.51-2.36-1.51-5.49.1C45.79,6.45,39.26,15.25,36,26.23c-1.43,4.55-1.9,10.42-1.24,13.64A9,9,0,0,0,37.37,45a3.93,3.93,0,0,0,2.84.66,6.43,6.43,0,0,0,3.4-.66,28.37,28.37,0,0,0,9-7.38c.85-1.14,2.74-3.6,4.26-5.49,1.8-2.47,2.84-3.6,3.12-3.7a1.45,1.45,0,0,1,1.71,2A155,155,0,0,1,49.77,42.33a25.86,25.86,0,0,1-6.53,4.07,10.76,10.76,0,0,1-4.45.48C34.9,45.83,32.82,40.82,33.48,34Z"/><path class="cls-1" d="M66.9,26.52c.86-1.61,1-1.8,2.09-2.37,1.42-.66,2-.66,2.74-.09s.76,1.32.29,2.84c-.19.57-.29,1.13-.19,1.13.19.29,3.88.1,5.39-.19a10.42,10.42,0,0,0,3.51-1.23c1-.28,1.42.57-.19,1.23A26.67,26.67,0,0,1,73,29.26h-1.7l-1,1.9c-1.23,2.18-2.09,3.31-3.13,3.69a2.53,2.53,0,0,1-.75.28L65.86,35C64.25,34.28,64.73,30.78,66.9,26.52Zm1.23,4.92a12.05,12.05,0,0,0,1.24-2c.37-.66.37-.75,0-.94s-.48-.38-.57-.38a20.69,20.69,0,0,0-1.9,4.26C66.71,33.24,67.09,33.05,68.13,31.44Zm2.75-5.87c.1,0,.1-.09.1-.19s-.1-.28-.19-.28-.19.09-.1.28S70.88,25.57,70.88,25.57Z"/><path class="cls-1" d="M76.46,38.26l2.56-7a27,27,0,0,0,1.42-4.64,1.77,1.77,0,0,1,1.8-1.89,1.83,1.83,0,0,1,1.7,1.7,1.79,1.79,0,0,1-.56,1.23,12.31,12.31,0,0,0-1.61,3.41c-.38.95-.38,1.05,0,.57a41.76,41.76,0,0,1,5.11-5.87c1.61-1.32,2.46-1.7,3.5-1.7s1.8.94,2,2.36l.1,1,1-.29c.57-.19,2.74-.66,3.88-.85s1.14,1-.29,1.14c-2.65.37-4.92,1.13-5,1.7a32,32,0,0,1-3.41,6.06c-2,2.65-4.45,3.69-5.68,2.46s-.48-3,1.7-5.3a25.92,25.92,0,0,1,5.78-4.07c.75-.29.66-3-.1-3-.47,0-2.27,1.42-3.5,2.74C84,31.16,79.21,39.4,76.94,44.89A76.44,76.44,0,0,0,74.19,54c-.38,1.51-1.32,2.08-2.08,1.32a1.45,1.45,0,0,1-.38-.94C71.73,53.6,75.14,42,76.46,38.26Zm13.73-8.43c-.19-.28-3.12,2-4.16,3.13-1.23,1.32-2.18,2.93-2,3.31s.57.19,1.61-.38a10.58,10.58,0,0,0,1.89-1.8C88.68,32.77,90.38,29.93,90.19,29.83Z"/><path class="cls-1" d="M93,38.26l2.56-7A27,27,0,0,0,97,26.61a1.77,1.77,0,0,1,1.8-1.89,1.83,1.83,0,0,1,1.7,1.7,1.81,1.81,0,0,1-.57,1.23,13,13,0,0,0-1.61,3.41c-.37.95-.37,1.05,0,.57a42.42,42.42,0,0,1,5.12-5.87c1.61-1.32,2.46-1.7,3.5-1.7s1.8.94,2,2.36l.09,1,1-.29c.57-.19,2.75-.66,3.89-.85s1.13,1-.29,1.14c-2.65.37-4.92,1.13-5,1.7a31.32,31.32,0,0,1-3.4,6.06c-2,2.65-4.45,3.69-5.69,2.46s-.47-3,1.71-5.3A25.88,25.88,0,0,1,107,28.32c.76-.29.67-3-.09-3-.47,0-2.27,1.42-3.5,2.74-2.84,3.13-7.67,11.37-9.94,16.86A74.56,74.56,0,0,0,90.76,54c-.38,1.51-1.33,2.08-2.08,1.32a1.45,1.45,0,0,1-.38-.94C88.3,53.6,91.71,42,93,38.26Zm13.73-8.43c-.19-.28-3.12,2-4.17,3.13-1.23,1.32-2.17,2.93-2,3.31s.56.19,1.61-.38a10.58,10.58,0,0,0,1.89-1.8C105.25,32.77,107,29.93,106.76,29.83Z"/><path class="cls-1" d="M114.33,25.57c1.33-2.37,1.52-2.55,2.47-2.55a1.57,1.57,0,0,1,1.32.56c.66,1,.57,1.52-.76,2.84a9,9,0,0,0-2.08,2.94c-1.23,2.56-.76,4,1,3.5a27,27,0,0,0,7.38-4.26c.67-.47,1.14-1,1.52-1.23,1-.85,1.51,0,.66.57l-1.51,1.23c-6.35,4.92-8.9,6-10.89,4.73-1-.56-1.23-1.13-1.14-2.74S112.91,28.22,114.33,25.57Zm4.17-5.3c-.47-.66-.47-.76-.19-1.42a1.34,1.34,0,0,1,1.42-.85,1.81,1.81,0,0,1,1.61,1.61C121.34,20.84,119.35,21.31,118.5,20.27Z"/><path class="cls-1" d="M76.79,10.84s0,.15,0,.54c0,.77-.08,1.52-.08,2.24,0,.08,0,.24,0,.49a7.52,7.52,0,0,1,0,.89v.18c0,.17,0,.26-.16.26s-.2-.1-.28-.3a1.94,1.94,0,0,0-.56-.86,5.07,5.07,0,0,1-3.46,1.26,6.43,6.43,0,0,1-4.87-2,7.29,7.29,0,0,1-1.93-5.18,7.4,7.4,0,0,1,1.77-5.12,5.83,5.83,0,0,1,4.57-2,6,6,0,0,1,1.63.17A6.52,6.52,0,0,1,75,2.06a1.56,1.56,0,0,0,.66.25c.12,0,.24-.1.34-.31.18-.38.32-.56.42-.56a.14.14,0,0,1,.16.16,1.16,1.16,0,0,1,0,.26,19.78,19.78,0,0,0-.22,3.6.87.87,0,0,1-.06.44.21.21,0,0,1-.16.06c-.13,0-.22-.13-.26-.38a6.67,6.67,0,0,0-.74-2.38A3.34,3.34,0,0,0,72,1.6a3.22,3.22,0,0,0-2.56,1.08,8.38,8.38,0,0,0-1.7,5.68,8.44,8.44,0,0,0,1.4,5.18,3.91,3.91,0,0,0,3.24,1.6,3.63,3.63,0,0,0,1.9-.51,3.39,3.39,0,0,0,1.32-1.39A7.84,7.84,0,0,0,76.33,11c.06-.32.14-.48.26-.48S76.79,10.64,76.79,10.84Z"/><path class="cls-1" d="M86.25,14.4c0,.22-.23.46-.7.71a3,3,0,0,1-1.36.37,1.3,1.3,0,0,1-1.44-1.42,2.48,2.48,0,0,1-2.35,1.48A2,2,0,0,1,79,15a1.71,1.71,0,0,1-.56-1.31,2.91,2.91,0,0,1,2-2.6,10.18,10.18,0,0,1,2.33-.64V10a9.28,9.28,0,0,0-.18-2.32,1.36,1.36,0,0,0-1.44-1A1.79,1.79,0,0,0,79.94,7a1.18,1.18,0,0,0-.47,1c0,.1.09.16.25.16a.57.57,0,0,1,.44.24.83.83,0,0,1,.19.54.78.78,0,0,1-.87.88,1,1,0,0,1-.75-.31,1.09,1.09,0,0,1-.3-.79,2.13,2.13,0,0,1,.74-1.62,3.26,3.26,0,0,1,2.28-.74q2.2,0,2.7,1.2a5.88,5.88,0,0,1,.18,1.82V13.1c0,.61,0,1,0,1.08.07.48.26.72.58.72a1.19,1.19,0,0,0,.92-.4c.14-.15.24-.22.3-.22S86.25,14.31,86.25,14.4Zm-3.52-2.12V10.81a5,5,0,0,0-2.11.9A1.82,1.82,0,0,0,80,13.18a1.56,1.56,0,0,0,.37,1.05,1.19,1.19,0,0,0,.92.41,1.56,1.56,0,0,0,1.36-1A4.56,4.56,0,0,0,82.73,12.28Z"/><path class="cls-1" d="M99.67,15.19c0,.1-.11.15-.34.15h-3.6c-.17,0-.26-.05-.26-.14s.08-.14.22-.14h.66c.2,0,.32-.06.35-.14a3.36,3.36,0,0,0,0-.85v-5a3.32,3.32,0,0,0-.3-1.65,1.15,1.15,0,0,0-1-.49,1.64,1.64,0,0,0-1,.31,1.62,1.62,0,0,0-.63.79,16.08,16.08,0,0,0-.08,2.22v3.78c0,.44,0,.69,0,.75a.32.32,0,0,0,.36.25h.57c.17,0,.25,0,.25.14s-.1.14-.3.14H91c-.16,0-.24-.06-.24-.16s0-.11.12-.12a6.43,6.43,0,0,1,.8,0c.22,0,.33-.08.34-.2l0-.28V9a3.2,3.2,0,0,0-.28-1.6,1.16,1.16,0,0,0-1-.43,1.74,1.74,0,0,0-1.22.45,1.56,1.56,0,0,0-.49,1.16v5.67a1.55,1.55,0,0,0,.09.71c.06.07.26.11.58.11h.16a.86.86,0,0,1,.22,0c.14,0,.21.05.21.16s-.08.14-.26.14h-.2q-.48,0-1.5,0h-2c-.18,0-.28-.06-.28-.16s.09-.14.26-.14a3.07,3.07,0,0,0,.88-.07.3.3,0,0,0,.14-.25V9.53a13.39,13.39,0,0,0-.06-1.76c0-.17-.23-.25-.58-.25h-.66c-.17,0-.26,0-.26-.14s0-.13.09-.14a4.4,4.4,0,0,1,.66-.06,5.37,5.37,0,0,0,1.15-.24,1.88,1.88,0,0,0,.79-.38c.15-.15.25-.22.32-.22s.11,0,.12.16S89,7,89,7.62a2.68,2.68,0,0,1,2.46-1.28c1.19,0,1.91.44,2.17,1.34a2.66,2.66,0,0,1,2.5-1.34,2,2,0,0,1,2,1.06,4.39,4.39,0,0,1,.28,1.86V14.2a2.1,2.1,0,0,0,.07.75,1.81,1.81,0,0,0,.62.11h.36C99.6,15,99.67,15.09,99.67,15.19Z"/><path class="cls-1" d="M104.51,15.18c0,.12-.11.18-.34.18l-.48,0-1,0h-2.08a.36.36,0,0,1-.24.08c-.14,0-.22,0-.22-.15s.14-.21.4-.21c.51,0,.79-.05.83-.11a2.32,2.32,0,0,0,.07-.83V8a3.05,3.05,0,0,0,0-.59c0-.06-.1-.1-.25-.1h-.78c-.14,0-.22,0-.22-.13s.12-.13.34-.14a4.75,4.75,0,0,0,2.27-.63l.2-.11a2.67,2.67,0,0,1,.15,1.09v6.43a7.73,7.73,0,0,0,0,.94.25.25,0,0,0,.21.18,3.86,3.86,0,0,0,.88.08C104.42,15,104.51,15.07,104.51,15.18ZM103,2.72a.8.8,0,0,1-.9.9.93.93,0,0,1-.64-.25.83.83,0,0,1-.26-.61c0-.63.3-.95.9-.95A.8.8,0,0,1,103,2.72Z"/><path class="cls-1" d="M109.21,15.16c0,.12-.08.18-.26.18h-.24l-1.06,0H107l-1.6,0h-.24c-.2,0-.3-.05-.3-.17s.08-.13.22-.13h.52c.38,0,.56-.08.56-.24s0-.6,0-1.56V3.06a2.77,2.77,0,0,0,0-.72c0-.11-.14-.16-.32-.16h-.72c-.18,0-.28-.06-.28-.17s.17-.16.5-.17a5,5,0,0,0,1.78-.44l.42-.2.16-.06a6.26,6.26,0,0,1,.14,1.76V14.12c0,.4,0,.63,0,.71A.21.21,0,0,0,108,15l.74,0C109.06,15,109.21,15.06,109.21,15.16Z"/><path class="cls-1" d="M113.91,15.16c0,.12-.08.18-.26.18h-.24l-1.06,0h-.62l-1.6,0h-.24c-.2,0-.3-.05-.3-.17s.08-.13.22-.13h.52c.38,0,.56-.08.56-.24s0-.6,0-1.56V3.06a2.77,2.77,0,0,0,0-.72c0-.11-.14-.16-.32-.16h-.72c-.18,0-.28-.06-.28-.17s.17-.16.5-.17a5,5,0,0,0,1.78-.44l.42-.2.16-.06a6.26,6.26,0,0,1,.14,1.76V14.12c0,.4,0,.63,0,.71a.21.21,0,0,0,.14.15l.74,0C113.76,15,113.91,15.06,113.91,15.16Z"/><path class="cls-1" d="M122.67,14.4c0,.22-.23.46-.7.71a3,3,0,0,1-1.37.37,1.3,1.3,0,0,1-1.43-1.42,2.49,2.49,0,0,1-2.35,1.48,2,2,0,0,1-1.41-.51,1.71,1.71,0,0,1-.56-1.31,2.91,2.91,0,0,1,2-2.6,10,10,0,0,1,2.33-.64V10A9.28,9.28,0,0,0,119,7.66a1.36,1.36,0,0,0-1.44-1,1.79,1.79,0,0,0-1.17.38,1.18,1.18,0,0,0-.47,1c0,.1.09.16.25.16a.57.57,0,0,1,.44.24.83.83,0,0,1,.19.54.78.78,0,0,1-.87.88,1,1,0,0,1-.75-.31,1.09,1.09,0,0,1-.3-.79,2.13,2.13,0,0,1,.74-1.62,3.26,3.26,0,0,1,2.28-.74q2.2,0,2.7,1.2a5.88,5.88,0,0,1,.18,1.82V13.1c0,.61,0,1,0,1.08.07.48.26.72.58.72a1.19,1.19,0,0,0,.92-.4c.14-.15.24-.22.3-.22S122.67,14.31,122.67,14.4Zm-3.52-2.12V10.81a5.1,5.1,0,0,0-2.12.9,1.84,1.84,0,0,0-.64,1.47,1.56,1.56,0,0,0,.37,1.05,1.19,1.19,0,0,0,.92.41,1.56,1.56,0,0,0,1.36-1A4.94,4.94,0,0,0,119.15,12.28Z"/><path class="cls-1" d="M10.46,9.74a5.31,5.31,0,0,1-2,4.4A6,6,0,0,1,4.64,15.3H.3c-.2,0-.3-.06-.3-.16S.17,15,.51,15s.71-.08.82-.24a1.75,1.75,0,0,0,.06-.61V5.52a1.84,1.84,0,0,0-.12-.91c-.08-.09-.35-.13-.82-.13C.2,4.48.08,4.42.08,4.3s.09-.12.27-.12H3.14a14.31,14.31,0,0,1,4.08.4,4.35,4.35,0,0,1,2.35,1.9A6,6,0,0,1,10.46,9.74ZM8.67,9.68a6,6,0,0,0-1-3.91A4,4,0,0,0,4.38,4.53a2.2,2.2,0,0,0-1.29.22,1.57,1.57,0,0,0-.1.77v8.54a2.82,2.82,0,0,0,0,.55.27.27,0,0,0,.13.16A4.32,4.32,0,0,0,4.77,15a3.5,3.5,0,0,0,2.78-1.22A6.08,6.08,0,0,0,8.67,9.68Z"/><path class="cls-1" d="M14.05,14.55a.82.82,0,0,1-.25.61.86.86,0,0,1-.6.25.84.84,0,0,1-.86-.87.85.85,0,0,1,.24-.61.83.83,0,0,1,.62-.25.82.82,0,0,1,.6.25A.83.83,0,0,1,14.05,14.55Z"/><path class="cls-1" d="M20.64,13.26A2.13,2.13,0,0,1,20,14.84a2.24,2.24,0,0,1-1.61.65A3.09,3.09,0,0,1,17,15.1a.82.82,0,0,0-.36-.11c-.15,0-.26.1-.34.31s-.1.19-.17.19-.11-.05-.11-.13V13.22c0-.12,0-.18.11-.18s.13.06.14.18a2.52,2.52,0,0,0,.42,1.16,2,2,0,0,0,1.71.84,1.31,1.31,0,0,0,.93-.34,1.21,1.21,0,0,0,.35-.9,1.25,1.25,0,0,0-.4-1,1.63,1.63,0,0,0-.41-.3q-.18-.09-1.08-.42c-1.18-.45-1.77-1.13-1.77-2a2.05,2.05,0,0,1,.6-1.5,2,2,0,0,1,1.49-.61,3.65,3.65,0,0,1,1,.19,1,1,0,0,0,.28,0,.38.38,0,0,0,.41-.32c0-.11.08-.16.15-.16s.11,0,.11.13v.76A8.3,8.3,0,0,0,20.13,10v0a.12.12,0,0,1-.13.13c-.06,0-.14-.17-.24-.49a1.86,1.86,0,0,0-.62-.94,1.59,1.59,0,0,0-1-.35,1.25,1.25,0,0,0-.9.34,1.12,1.12,0,0,0-.35.85c0,.53.36.94,1.07,1.22a7,7,0,0,1,2.11,1.09A1.79,1.79,0,0,1,20.64,13.26Z"/><path class="cls-1" d="M26.43,13.26a2.12,2.12,0,0,1-.67,1.58,2.27,2.27,0,0,1-1.62.65,3.09,3.09,0,0,1-1.32-.39.82.82,0,0,0-.36-.11c-.15,0-.26.1-.33.31s-.11.19-.18.19-.11-.05-.11-.13V13.22c0-.12,0-.18.11-.18s.13.06.15.18a2.41,2.41,0,0,0,.41,1.16,2,2,0,0,0,1.71.84,1.29,1.29,0,0,0,.93-.34,1.17,1.17,0,0,0,.35-.9,1.25,1.25,0,0,0-.4-1,1.8,1.8,0,0,0-.4-.3l-1.08-.42c-1.19-.45-1.78-1.13-1.78-2a2.05,2.05,0,0,1,.6-1.5,2,2,0,0,1,1.5-.61,3.6,3.6,0,0,1,.95.19,1,1,0,0,0,.28,0,.39.39,0,0,0,.42-.32c0-.11.08-.16.14-.16s.11,0,.11.13v.76A10,10,0,0,0,25.92,10v0a.12.12,0,0,1-.13.13c-.06,0-.14-.17-.24-.49a1.91,1.91,0,0,0-.61-.94,1.64,1.64,0,0,0-1-.35,1.25,1.25,0,0,0-.9.34,1.12,1.12,0,0,0-.35.85c0,.53.36.94,1.07,1.22a7.29,7.29,0,0,1,2.12,1.09A1.82,1.82,0,0,1,26.43,13.26Z"/><path class="cls-1" d="M33.71,14.58c0,.18-.19.37-.56.56a2.33,2.33,0,0,1-1.09.3,1,1,0,0,1-1.15-1.14A2,2,0,0,1,29,15.49a1.64,1.64,0,0,1-1.13-.41A1.34,1.34,0,0,1,27.46,14,2.33,2.33,0,0,1,29,12a8.48,8.48,0,0,1,1.87-.51V11a7.22,7.22,0,0,0-.15-1.86,1.09,1.09,0,0,0-1.15-.81,1.47,1.47,0,0,0-.94.3.94.94,0,0,0-.37.77c0,.08.06.13.19.13a.43.43,0,0,1,.35.19.64.64,0,0,1,.16.43.62.62,0,0,1-.7.71.82.82,0,0,1-.6-.25.88.88,0,0,1-.23-.63,1.67,1.67,0,0,1,.59-1.3,2.57,2.57,0,0,1,1.82-.59c1.17,0,1.9.32,2.16,1a4.51,4.51,0,0,1,.15,1.45v3c0,.49,0,.77,0,.86.06.38.21.58.47.58a1,1,0,0,0,.73-.32q.16-.18.24-.18C33.69,14.48,33.71,14.51,33.71,14.58Zm-2.81-1.7V11.71a4.07,4.07,0,0,0-1.7.71,1.49,1.49,0,0,0-.51,1.18,1.19,1.19,0,0,0,.29.84.93.93,0,0,0,.73.33A1.22,1.22,0,0,0,30.8,14,3.58,3.58,0,0,0,30.9,12.88Z"/></g></g></svg>